<?xml version="1.0" standalone="no"?><!DOCTYPE svg PUBLIC "-//W3C//DTD SVG 1.1//EN" "http://www.w3.org/Graphics/SVG/1.1/DTD/svg11.dtd"><svg t="1745892024987" class="icon" viewBox="0 0 1024 1024" version="1.1" xmlns="http://www.w3.org/2000/svg" p-id="16279" xmlns:xlink="http://www.w3.org/1999/xlink" width="200" height="200"><path d="M986.197415 613.805476c10.297857-39.551451 15.793781-81.038875 15.793781-123.81428C1001.991196 219.376954 782.614242 0 512 0S22.008804 219.376954 22.008804 489.991196 241.385758 979.982391 512 979.982391c122.994292 0 235.394731-45.323371 321.435536-120.170331z" fill="#746BF9" p-id="16280"></path><path d="M180.334606 930.659076a147.857947 147.857947 0 0 1 43.535395 16.655769 147.803947 147.803947 0 0 1 36.193498 29.375592l78.878904-56.741212a43.807392 43.807392 0 0 0 17.073763-16.619769l1.873974-3.245955c-0.241997-0.133998-0.491993-0.235997-0.73199-0.373995-13.825808-7.981889-21.947695-22.023694-22.973681-36.831489-0.207997-3.007958-1.893974-5.451924-4.195941-6.917903-2.533965-1.615978-5.815919-2.041972-8.799878-0.583992-29.453591 14.3878-64.08711-5.567923-66.357079-38.311468-0.229997-3.311954-2.239969-5.941917-4.905932-7.329899-2.419966-1.257983-5.379925-1.497979-8.089887-0.173997-13.337815 6.51391-29.55759 6.50191-43.383398-1.48198-0.239997-0.137998-0.453994-0.303996-0.68999-0.445993l-1.873974 3.245955a43.823391 43.823391 0 0 0-5.855919 23.095679z" fill="#FCF9EB" p-id="16281"></path><path d="M283.893168 858.580077l0.113998-1.717976c-15.707782-6.207914-27.863613-20.85371-29.175595-39.797447-0.229997-3.311954-2.239969-5.941917-4.905932-7.329899-2.421966-1.257983-5.379925-1.497979-8.089887-0.173997-13.337815 6.51391-29.55759 6.50191-43.383398-1.48198-0.239997-0.137998-0.453994-0.303996-0.68999-0.445993l-1.873974 3.245955a43.823391 43.823391 0 0 0-5.855919 23.095679l-9.699865 96.682657a147.779948 147.779948 0 0 1 42.647408 16.167776c3.219955-17.333759 7.717893-39.977445 12.91182-61.747143 10.501854-43.997389 48.001333-26.497632 48.001334-26.497632z" fill="#FCECA9" p-id="16282"></path><path d="M597.850808 111.60645l160.129776 92.450716c0.319996 0.183997 0.609992 0.399994 0.919987 0.593992l29.029597-50.279302c25.831641-44.741379 10.501854-101.950584-34.239524-127.782225-44.741379-25.831641-101.950584-10.501854-127.782226 34.239524l-29.027597 50.279302c0.317996 0.169998 0.649991 0.313996 0.969987 0.497993z" fill="#FF4155" p-id="16283"></path><path d="M529.841752 447.689783l-151.93789 12.385828s-22.207692 46.023361-72.482993 145.729976 38.549465 185.113429 38.549464 185.11343c50.361301 58.551187 92.254719 96.596659 123.246289 79.042902 29.041597-16.449772 19.073735-49.431314 19.073735-49.431313-5.597922-18.099749-15.373787-38.847461-26.855627-59.761171l18.481743-130.850183s102.23858 21.691699 164.445717 9.813864c62.209136-11.877835 41.931418-61.723143 41.931417-61.723143-12.497826-126.346245-154.451855-130.32019-154.451855-130.32019z" fill="#FD995B" p-id="16284"></path><path d="M656.633992 565.146152c-62.207136 11.877835-164.445716-9.813864-164.445717-9.813864l-10.637852 75.324954c18.69974 3.689949 105.550534 19.631727 160.815767 9.077874 62.207136-11.877835 41.931418-61.723143 41.931417-61.723143a157.105818 157.105818 0 0 0-3.55595-21.239705c-6.181914 3.531951-14.053805 6.45191-24.107665 8.373884zM386.109748 749.813588s-88.822767-85.408814-38.549464-185.11343c23.863669-47.325343 41.391425-82.534854 53.23326-106.490521l-22.891682 1.865974s-22.207692 46.023361-72.482993 145.729976 38.549465 185.113429 38.549464 185.11343c50.361301 58.551187 92.254719 96.596659 123.246289 79.042902 17.633755-9.987861 20.87771-26.061638 20.711712-37.155484-27.927612-3.677949-62.257135-36.999486-101.816586-82.992847z" fill="#F48345" p-id="16285"></path><path d="M987.551396 608.403551l-70.165025-47.667338a58.909182 58.909182 0 0 1-15.651783-15.737781c-50.549298-74.656963-114.112415-160.715768-184.649436-221.724921-13.991806-12.103832-30.653574-20.679713-48.583325-25.24165-34.867516-8.871877-96.974653-22.411689-124.816267-14.473799-78.914904 22.501688-191.767337 18.777739-229.68081 74.588965-55.263233 81.34887-135.954112 303.965779-90.850739 334.607353 8.343884 5.667921 18.765739 7.059902 31.293566-0.351995l28.299607-25.145651c40.185442-44.443383 81.850863-138.24408 97.16665-174.633575a28.373606 28.373606 0 0 1 23.097679-17.235761c25.92964-2.805961 65.241094-3.865946 91.318732-6.993902 66.885071-8.023889 130.384189 19.207733 161.733754 79.448896 7.2059 13.847808 13.807808 26.113637 15.639783 35.833503 0 0 10.031861 37.339481-19.247732 42.931403l-102.672575 5.335926c-10.689852-2.241969-180.451494-55.845224-238.166692 13.403814-2.343967 2.835961-4.703935 6.531909-4.567937 6.329912-6.48191 10.407855-9.899863 24.45166-4.647935 35.239511 4.797933 10.299857 15.251788 11.479841 102.788572 49.441313 38.247469 16.487771 77.512924 34.377523 97.134651 47.707338 32.705546 22.217691 165.121707 28.509604 225.358871 30.23958a104.258552 104.258552 0 0 1 55.615228 17.96575l45.879362 31.167568c76.870933-65.349093 133.296149-153.993862 158.373801-255.034459z" fill="#F9BA8F" p-id="16286"></path><path d="M884.776823 807.96678l-58.135192-39.493452a104.268552 104.268552 0 0 0-55.615228-17.96775c-60.237164-1.729976-192.653325-8.021889-225.358871-30.23958-46.497354-31.587561-187.485396-81.790864-197.445258-93.274705-1.645977-1.973973-2.479966-3.849947-2.995958-5.101929-29.371592 12.125832-38.309468 29.983584-38.17347 29.783586-8.955876 14.3818-10.715851 34.897515 1.899974 42.601409 20.683713 12.705824 150.191914 60.453161 193.375314 89.788753 32.705546 22.217691 165.121707 28.509604 225.358871 30.23958a104.262552 104.262552 0 0 1 55.615228 17.96775l45.879362 31.167568a492.931155 492.931155 0 0 0 55.595228-55.47123z" fill="#FCAD6D" p-id="16287"></path><path d="M254.449577 692.402385l28.297607-25.147651c36.75349-40.645436 75.906946-124.118276 97.16665-174.631575l0.008-0.016c6.861905-16.235775 23.475674-17.343759 23.195678-17.22976 12.019833-1.297982 28.673602-2.331968 40.923432-3.083958l0.177997-0.009999c17.763753-1.093985 35.903501-2.18397 50.113304-3.889946 67.541062-8.101887 129.364204 19.691727 160.551771 77.302926l0.037999-0.063999c6.659908 12.857821 14.811794 27.587617 16.783767 38.043472 2.595964 12.125832 3.071957 26.257635-5.191928 35.459507l-0.002 0.004s73.884974-26.477632 48.535326-99.260621c-2.429966-12.879821-12.903821-29.389592-21.355703-47.509341-26.215636-56.17722-86.192803-88.56477-147.761948-81.32887l-176.227553 20.709712a36.265496 36.265496 0 0 0-29.55159 21.991695c-78.912904 187.499396-129.720199 227.592839-129.874196 227.820836l0.002 0.026 0.022 0.243996c0.833988 11.109846 3.679949 24.685657 12.857821 30.921571 5.475924 3.719948 11.851835 5.575923 19.125734 4.33394 3.807947-0.651991 7.859891-2.13997 12.165832-4.685935z" fill="#FCAD6D" p-id="16288"></path><path d="M196.802377 810.938739a49.437313 49.437313 0 0 0 46.485355 1.587978c1.587978-0.773989 3.377953-0.72599 4.98793 0.065999l333.473369-580.649937-40.031444-23.113679-345.6092 601.671645c0.235997 0.141998 0.453994 0.299996 0.69399 0.437994z" fill="#FFB332" p-id="16289"></path><path d="M196.802377 810.938739a49.437313 49.437313 0 0 0 46.485355 1.587978c1.587978-0.773989 3.377953-0.72599 4.98793 0.065999l156.919821-273.232206a11.279843 11.279843 0 0 0-6.315912-0.293996c-24.697657 6.065916-31.943556-9.165873-34.003528-16.869766a12.20783 12.20783 0 0 0-1.369981-3.121956l-167.397675 291.421953c0.235997 0.145998 0.453994 0.303996 0.69399 0.441994z" fill="#FF9100" p-id="16290"></path><path d="M248.655657 812.758713c1.701976 0.981986 2.749962 2.635963 2.88396 4.533937a49.439313 49.439313 0 0 0 24.617658 39.463452 49.443313 49.443313 0 0 0 46.485355 1.587978c1.709976-0.833988 3.665949-0.75199 5.367925 0.229997 0.121998 0.069999 0.215997 0.169998 0.331995 0.245997l333.47337-580.649937-80.064889-46.225358-333.475369 580.649937c0.123998 0.059999 0.255996 0.091999 0.379995 0.163997z" fill="#FFDD40" p-id="16291"></path><path d="M493.818252 558.314247c-51.687282 16.019778-74.532965-3.549951-82.922848-14.817794a11.811836 11.811836 0 0 0-5.701921-4.133943l-156.919821 273.232206c0.125998 0.061999 0.255996 0.091999 0.379995 0.163997 1.701976 0.981986 2.749962 2.635963 2.88396 4.533937a49.439313 49.439313 0 0 0 24.617658 39.463452 49.439313 49.439313 0 0 0 46.483355 1.587978c1.709976-0.833988 3.665949-0.75199 5.367925 0.229997 0.123998 0.069999 0.215997 0.169998 0.331995 0.245997l172.555604-300.455828a11.681838 11.681838 0 0 0-7.075902-0.049999zM330.890515 863.106014a49.439313 49.439313 0 0 0 24.617658 39.463452c0.239997 0.137998 0.487993 0.245997 0.72799 0.379995l345.609201-601.667645-40.031444-23.113679-333.47337 580.649937c1.489979 0.999986 2.427966 2.525965 2.549965 4.28794z" fill="#FFB332" p-id="16292"></path><path d="M537.751642 570.562077c-17.003764 5.499924-26.491632-1.889974-31.203566-8.165887a11.48784 11.48784 0 0 0-5.653922-4.031944l-172.555604 300.455828c1.489979 0.999986 2.427966 2.525965 2.551965 4.28794a49.439313 49.439313 0 0 0 24.617658 39.463452c0.239997 0.137998 0.487993 0.245997 0.72999 0.379995l190.549354-331.727393a11.933834 11.933834 0 0 0-9.035875-0.661991z" fill="#FF9100" p-id="16293"></path><path d="M225.521978 944.454885a151.533896 151.533896 0 0 0-44.853377-17.125763l-7.857891 78.334913c-1.649977 14.263802 14.531798 23.605672 26.059638 15.045791l63.911113-45.973362a151.617895 151.617895 0 0 0-37.259483-30.281579z" fill="#5F5F9B" p-id="16294"></path><path d="M217.736086 976.690437s2.211969-13.745809 5.883919-33.281538a151.545896 151.545896 0 0 0-42.953404-16.079777l-7.857891 78.334913c-1.649977 14.263802 14.531798 23.605672 26.059638 15.045791l28.953598-20.827711c-14.465799-6.593908-10.08586-23.191678-10.08586-23.191678z" fill="#47477F" p-id="16295"></path><path d="M549.785475 631.941224c-10.689852-2.241969-180.451494-55.845224-238.164692 13.403814-2.343967 2.835961-4.703935 6.531909-4.567937 6.329912-6.48191 10.407855-9.899863 24.45166-4.647935 35.241511 4.797933 10.297857 15.251788 11.479841 102.788572 49.441313 105.288538 45.38737 87.990778 45.843363 110.414467 54.119249L625.998417 627.981279z" fill="#F9BA8F" p-id="16296"></path><path d="M558.949348 726.679909c-5.357926-1.977973-9.881863-4.103943-13.279816-6.411911-46.497354-31.587561-187.485396-81.790864-197.445258-93.274705-1.645977-1.973973-2.481966-3.849947-2.995958-5.101929-26.785628 11.057846-49.341315 33.893529-44.833378 58.943181 3.167956 15.991778 7.463896 13.369814 102.840572 54.675241 110.16247 47.187345 87.552784 45.801364 112.35644 54.961237a0.083999 0.083999 0 0 1 0.01 0.004z" fill="#FCAD6D" p-id="16297"></path><path d="M620.524493 365.900919a16.165776 16.165776 0 0 1-8.103888-2.17797l-80.066888-46.225358a16.239774 16.239774 0 0 1-5.943917-22.181692 16.233775 16.233775 0 0 1 22.181692-5.943917l80.066888 46.225358a16.239774 16.239774 0 0 1-8.133887 30.303579z" fill="#FCECA9" p-id="16298"></path><path d="M700.745379 303.18779l-160.129776-92.450716c-14.213803-8.205886-19.083735-26.381634-10.877849-40.595437s26.381634-19.083735 40.595436-10.877849l160.129776 92.450717c14.213803 8.205886 19.083735 26.381634 10.877849 40.595436-8.207886 14.215803-26.381634 19.085735-40.595436 10.877849z" fill="#D3DCFB" p-id="16299"></path><path d="M597.070819 213.819031a31.191567 31.191567 0 0 1 22.405689-16.60977c3.219955-0.573992 5.583922-2.973959 6.391911-5.877918l-55.535229-32.063555c-14.213803-8.205886-32.38755-3.335954-40.595436 10.877849-8.205886 14.213803-3.335954 32.38755 10.877849 40.595436l57.843196 33.395537c-5.451924-9.017875-6.443911-20.409717-1.38798-30.317579z" fill="#BEC8F7" p-id="16300"></path><path d="M729.360982 253.622478l-160.127777-92.450716c-14.213803-8.205886-19.083735-26.381634-10.877849-40.595436s26.381634-19.083735 40.595437-10.877849l160.129776 92.450716c14.213803 8.205886 19.083735 26.381634 10.877849 40.595436-8.207886 14.213803-26.381634 19.083735-40.597436 10.877849z" fill="#E9EFFF" p-id="16301"></path><path d="M625.710421 186.411411a31.189567 31.189567 0 0 1 3.181956-27.709615c6.907904-10.651852 19.42573-15.475785 31.409564-13.579811l-61.351148-35.421508c-14.213803-8.205886-32.38755-3.335954-40.595437 10.877849-8.205886 14.213803-3.335954 32.38755 10.877849 40.595436l55.773226 32.201553a8.093888 8.093888 0 0 0 0.70399-6.963904z" fill="#D3DCFB" p-id="16302"></path><path d="M737.894863 85.640811m-36.049499 0a36.049499 36.049499 0 1 0 72.098998 0 36.049499 36.049499 0 1 0-72.098998 0Z" fill="#FF7186" p-id="16303"></path></svg>